<?xml version="1.0" encoding="utf-8"?>
<!-- Generator: Adobe Illustrator 27.0.0, SVG Export Plug-In . SVG Version: 6.00 Build 0)  -->
<svg version="1.1" xmlns="http://www.w3.org/2000/svg" xmlns:xlink="http://www.w3.org/1999/xlink" x="0px" y="0px"
	 viewBox="0 0 256 256" style="enable-background:new 0 0 256 256;" xml:space="preserve">
<g id="Layer_3">
</g>
<g id="Layer_2">
	<g>
		<path d="M82.38,129.84c-6.24,0-11.51,4.87-11.51,11.11c0,6.43,5.27,11.51,11.51,11.51c6.24,0,11.11-5.07,11.11-11.51
			C93.49,134.72,88.62,129.84,82.38,129.84z"/>
		<path d="M180.26,113.66l-11.89-27.1c-1.56-3.51-6.24-6.63-9.95-6.63H97.58c-3.71,0-8.39,3.12-9.95,6.63l-11.89,27.1
			c-0.59,0.97-0.59,2.15-0.59,2.93h105.69C180.84,115.81,180.84,114.64,180.26,113.66z"/>
		<path d="M128,0C57.31,0,0,57.31,0,128s57.31,128,128,128s128-57.31,128-128S198.69,0,128,0z M202.88,152.47
			c0,6.63-4.49,12.09-10.73,13.65v12.48c0,6.05-4.87,10.73-10.73,10.73c-6.05,0-10.73-4.68-10.73-10.73v-12.09H85.3v12.09
			c0,6.05-4.68,10.73-10.73,10.73c-5.85,0-10.73-4.68-10.73-10.73v-12.48c-6.24-1.56-10.73-7.02-10.73-13.65v-21.25
			c0-3.12,0.97-7.99,2.34-11.51c0.19-0.59,0.39-1.37,0.78-1.95l22.23-44.65c1.75-3.31,6.43-6.43,10.33-6.43h78.39
			c3.9,0,8.58,3.12,10.33,6.43h0.01l22.23,44.65c0.39,0.59,0.59,1.37,0.78,1.95c1.37,3.51,2.34,8.39,2.34,11.51V152.47z"/>
		<path d="M173.63,129.84c-6.24,0-11.11,4.87-11.11,11.11c0,6.43,4.87,11.51,11.11,11.51s11.51-5.07,11.51-11.51
			C185.14,134.72,179.87,129.84,173.63,129.84z"/>
	</g>
</g>
</svg>
