<?xml version="1.0" encoding="utf-8"?>
<!-- Generator: Adobe Illustrator 27.0.0, SVG Export Plug-In . SVG Version: 6.00 Build 0)  -->
<svg version="1.1" id="Layer_3" xmlns="http://www.w3.org/2000/svg" xmlns:xlink="http://www.w3.org/1999/xlink" x="0px" y="0px"
	 viewBox="0 0 256 256" style="enable-background:new 0 0 256 256;" xml:space="preserve">
<path d="M128,0C57.31,0,0,57.31,0,128s57.31,128,128,128s128-57.31,128-128S198.69,0,128,0z M153.06,108.39l-1.58,18.66h-16.6v56.76
	h-22.77v-56.76h-11.7v-18.66h11.7V96.85c0-15.81,7.43-24.67,26.09-24.67c6.48,0,8.55,0.27,14.72,1.54l-0.17,18.54
	c-3.16-0.63-7.43-1.11-10.12-1.11c-7.27,0-7.75,3.16-7.75,8.22v9.01H153.06z"/>
</svg>
