<?xml version="1.0" encoding="utf-8"?>
<!-- Generator: Adobe Illustrator 27.0.0, SVG Export Plug-In . SVG Version: 6.00 Build 0)  -->
<svg version="1.1" id="Layer_3" xmlns="http://www.w3.org/2000/svg" xmlns:xlink="http://www.w3.org/1999/xlink" x="0px" y="0px"
	 viewBox="0 0 256 256" style="enable-background:new 0 0 256 256;" xml:space="preserve">
<g>
	<rect x="84.94" y="124.15" width="86.12" height="3.85"/>
	<ellipse transform="matrix(0.1222 -0.9925 0.9925 0.1222 -38.5439 158.0751)" cx="70.09" cy="100.83" rx="5.2" ry="5.2"/>
	<path d="M84.94,186.95h86.12v-46.92H84.94V186.95z M92.53,153.09h70.94v2.84H92.53V153.09z M92.53,162.07h70.94v2.84H92.53V162.07z
		 M92.53,171.04h70.94v2.84H92.53V171.04z"/>
	<path d="M128,0C57.31,0,0,57.31,0,128s57.31,128,128,128s128-57.31,128-128S198.69,0,128,0z M200.76,149.23
		c0,3.28-2.66,5.94-5.94,5.94c-5.94,0-11.88,0-17.82,0c0,7.01,0,14.02,0,21.03c0,3.42,0,6.84,0,10.27c0,1.98-0.4,3.46-1.93,4.86
		c-0.71,0.65-1.47,1.08-2.4,1.34c-0.86,0.24-1.71,0.22-2.58,0.22c-14.03,0-28.05,0-42.08,0s-28.05,0-42.08,0
		c-0.87,0-1.72,0.02-2.58-0.22c-0.93-0.26-1.69-0.68-2.4-1.34c-1.53-1.4-1.93-2.88-1.93-4.86c0-3.42,0-6.84,0-10.26
		c0-7.01,0-14.03,0-21.04c-5.94,0-11.88,0-17.82,0c-3.28,0-5.94-2.66-5.94-5.94c0-19.4,0-38.8,0-58.2c0-3.28,2.66-5.94,5.94-5.94
		c5.94,0,11.88,0,17.82,0c0-5.35,0-10.69,0-16.04c0-3.28,2.66-5.94,5.94-5.94c28.71,0,57.41,0,86.12,0c3.28,0,5.94,2.66,5.94,5.94
		c0,5.35,0,10.69,0,16.04c5.94,0,11.88,0,17.82,0c3.28,0,5.94,2.66,5.94,5.94C200.76,110.43,200.76,129.83,200.76,149.23z"/>
	<path d="M165.12,69.05c-24.75,0-49.49,0-74.24,0c-3.28,0-5.94,2.66-5.94,5.94c0,3.37,0,6.73,0,10.1c28.71,0,57.41,0,86.12,0
		c0-3.37,0-6.73,0-10.1C171.06,71.71,168.4,69.05,165.12,69.05z"/>
</g>
</svg>
