<?xml version="1.0" encoding="utf-8"?>
<!-- Generator: Adobe Illustrator 27.0.0, SVG Export Plug-In . SVG Version: 6.00 Build 0)  -->
<svg version="1.1" xmlns="http://www.w3.org/2000/svg" xmlns:xlink="http://www.w3.org/1999/xlink" x="0px" y="0px"
	 viewBox="0 0 256 256" style="enable-background:new 0 0 256 256;" xml:space="preserve">
<g id="Layer_3">
	<path d="M128,0C57.31,0,0,57.31,0,128s57.31,128,128,128s128-57.31,128-128S198.69,0,128,0z M191.17,107.5
		c0,38-23.28,46.36-45.46,48.85c4.83,4.86,7.34,11.57,6.86,18.4V202c0,0-4.91,0-49.14,0v-16.81c-27.56,5.97-33.43-13.03-33.43-13.03
		c-1.86-6.18-5.89-11.48-11.34-14.92c-9.05-6.17,0.7-5.97,0.7-5.97c6.33,0.82,11.93,4.48,15.22,9.95
		c5.75,10.23,18.67,13.91,28.95,8.26c0.45-5.04,2.67-9.76,6.27-13.33c-21.29-2.19-44.97-10.74-44.97-48.65
		c-0.29-9.93,3.28-19.59,9.95-26.96c-3.03-8.56-2.67-17.96,0.99-26.26c0,0,8.36-2.69,27.36,9.95c16.29-4.38,33.45-4.38,49.74,0
		c19-12.83,27.36-9.95,27.36-9.95c3.67,8.31,4.02,17.7,0.99,26.26C187.9,87.9,191.46,97.56,191.17,107.5z"/>
</g>
<g id="Layer_2">
</g>
</svg>
