<?xml version="1.0" encoding="utf-8"?>
<!-- Generator: Adobe Illustrator 27.0.0, SVG Export Plug-In . SVG Version: 6.00 Build 0)  -->
<svg version="1.1" id="Layer_6" xmlns="http://www.w3.org/2000/svg" xmlns:xlink="http://www.w3.org/1999/xlink" x="0px" y="0px"
	 viewBox="0 0 256 256" style="enable-background:new 0 0 256 256;" xml:space="preserve">
<style type="text/css">
	.st0{fill:none;}
</style>
<g>
	<path d="M128,0C57.31,0,0,57.31,0,128s57.31,128,128,128s128-57.31,128-128S198.69,0,128,0z M216.58,178.28c0,3.31-2.69,6-6,6
		H52.84c-3.31,0-6-2.69-6-6V84.83c0-3.31,2.69-6,6-6h157.74c3.31,0,6,2.69,6,6V178.28z"/>
	<g>
		<rect x="68.69" y="170.44" width="37.88" height="5.1"/>
		<rect x="155.75" y="170.44" width="37.52" height="5.1"/>
	</g>
	<g>
		<rect x="123.33" y="138.39" width="79.95" height="5.28"/>
		<rect x="123.33" y="122.54" width="79.95" height="5.46"/>
		<rect x="123.33" y="106.52" width="59.01" height="5.28"/>
		<rect x="123.33" y="90.31" width="32.42" height="5.83"/>
	</g>
	<g>
		
			<ellipse transform="matrix(0.7071 -0.7071 0.7071 0.7071 -53.4526 92.5579)" class="st0" cx="85" cy="110.8" rx="5.91" ry="5.91"/>
		<path class="st0" d="M106.07,93.81H64.03c-1.1,0-2,0.9-2,2v42.04c0,1.1,0.9,2,2,2h42.04c1.1,0,2-0.9,2-2V95.81
			C108.07,94.7,107.17,93.81,106.07,93.81z M84.91,99.62c6.18,0,11.19,5.01,11.19,11.19s-5.01,11.19-11.19,11.19
			s-11.19-5.01-11.19-11.19S78.73,99.62,84.91,99.62z M100.02,139.84c0-5.54-6.7-10.03-14.97-10.03s-14.97,4.49-14.97,10.03h-5.44
			c0-8.29,9.14-15,20.41-15s20.41,6.72,20.41,15H100.02z"/>
		<path d="M85.05,124.84c-11.27,0-20.41,6.72-20.41,15h5.44c0-5.54,6.7-10.03,14.97-10.03s14.97,4.49,14.97,10.03h5.44
			C105.47,131.56,96.33,124.84,85.05,124.84z"/>
		<path d="M107.01,88.78h-44.5c-3.31,0-6,2.69-6,6v44.5c0,3.31,2.69,6,6,6h44.5c3.31,0,6-2.69,6-6v-44.5
			C113.01,91.47,110.32,88.78,107.01,88.78z M108.07,137.84c0,1.1-0.9,2-2,2H64.03c-1.1,0-2-0.9-2-2V95.81c0-1.1,0.9-2,2-2h42.04
			c1.1,0,2,0.9,2,2V137.84z"/>
		<path d="M84.91,121.99c6.18,0,11.19-5.01,11.19-11.19s-5.01-11.19-11.19-11.19s-11.19,5.01-11.19,11.19S78.73,121.99,84.91,121.99
			z M85,104.89c3.27,0,5.91,2.65,5.91,5.91s-2.65,5.91-5.91,5.91c-3.27,0-5.91-2.65-5.91-5.91S81.73,104.89,85,104.89z"/>
	</g>
</g>
</svg>
