<?xml version="1.0" encoding="utf-8"?>
<!-- Generator: Adobe Illustrator 27.0.0, SVG Export Plug-In . SVG Version: 6.00 Build 0)  -->
<svg version="1.1" id="Layer_3" xmlns="http://www.w3.org/2000/svg" xmlns:xlink="http://www.w3.org/1999/xlink" x="0px" y="0px"
	 viewBox="0 0 256 256" style="enable-background:new 0 0 256 256;" xml:space="preserve">
<path d="M128,0C57.31,0,0,57.31,0,128s57.31,128,128,128s128-57.31,128-128S198.69,0,128,0z M96.21,179.9H73.74v-72.3h22.47V179.9z
	 M84.83,98.73c-7.1,0-11.83-5.03-11.68-11.24C73,80.98,77.73,76.1,84.97,76.1c7.25,0,11.83,4.88,11.98,11.38
	C96.95,93.7,92.22,98.73,84.83,98.73z M182.86,179.9h-22.47v-40.07c0-9.32-3.25-15.67-11.38-15.67c-6.21,0-9.91,4.29-11.38,8.43
	c-0.59,1.48-0.89,3.55-0.89,5.62v41.7h-22.47v-49.24c0-9.02-0.3-16.71-0.59-23.07h19.52l1.04,9.91h0.44
	c2.96-4.58,10.35-11.53,22.33-11.53c14.79,0,25.88,9.76,25.88,31.05V179.9z"/>
</svg>
