<?xml version="1.0" encoding="utf-8"?>
<!-- Generator: Adobe Illustrator 27.0.0, SVG Export Plug-In . SVG Version: 6.00 Build 0)  -->
<svg version="1.1" xmlns="http://www.w3.org/2000/svg" xmlns:xlink="http://www.w3.org/1999/xlink" x="0px" y="0px"
	 viewBox="0 0 256 256" style="enable-background:new 0 0 256 256;" xml:space="preserve">
<g id="Layer_3">
</g>
<g id="Layer_2">
	<g>
		<circle cx="128" cy="97.76" r="31.29"/>
		<path d="M128,0C57.31,0,0,57.31,0,128s57.31,128,128,128s128-57.31,128-128S198.69,0,128,0z M174.32,122.59l-0.48,0.9
			c-0.03,0.05-0.05,0.1-0.08,0.15L128,209.33l-45.76-85.7c-0.02-0.05-0.05-0.09-0.07-0.14l-0.48-0.91h0.05
			c-3.69-7.15-5.81-15.24-5.81-23.84c0-28.76,23.32-52.08,52.08-52.08c28.76,0,52.08,23.32,52.08,52.08c0,8.6-2.12,16.69-5.81,23.84
			H174.32z"/>
	</g>
</g>
</svg>
