<?xml version="1.0" encoding="utf-8"?>
<!-- Generator: Adobe Illustrator 27.0.0, SVG Export Plug-In . SVG Version: 6.00 Build 0)  -->
<svg version="1.1" id="Layer_3" xmlns="http://www.w3.org/2000/svg" xmlns:xlink="http://www.w3.org/1999/xlink" x="0px" y="0px"
	 viewBox="0 0 256 256" style="enable-background:new 0 0 256 256;" xml:space="preserve">
<path d="M128,0C57.31,0,0,57.31,0,128s57.31,128,128,128s128-57.31,128-128S198.69,0,128,0z M192.75,181.51c0,3.45,0,5.18-0.71,6.66
	c-0.59,1.23-1.71,2.43-2.89,3.11c-1.43,0.82-2.99,0.93-6.12,1.16c-2.73,0.2-5.48,0.3-8.26,0.3c-61.58,0-111.51-49.92-111.51-111.51
	c0-2.78,0.1-5.53,0.3-8.26c0.23-3.13,0.34-4.7,1.16-6.12c0.68-1.18,1.88-2.3,3.11-2.89c1.48-0.71,3.21-0.71,6.66-0.71h20.27
	c2.9,0,4.36,0,5.6,0.48c1.1,0.42,2.08,1.11,2.85,2c0.87,1.01,1.37,2.37,2.36,5.1l8.39,23.07c1.15,3.18,1.73,4.76,1.63,6.27
	c-0.09,1.33-0.54,2.61-1.31,3.69c-0.87,1.23-2.32,2.1-5.22,3.84l-9.85,5.91c8.65,19.06,24.1,34.53,43.16,43.16l5.91-9.85
	c1.74-2.9,2.61-4.35,3.84-5.22c1.09-0.77,2.36-1.22,3.69-1.31c1.51-0.1,3.09,0.48,6.27,1.63l23.07,8.39
	c2.73,0.99,4.09,1.49,5.1,2.36c0.89,0.77,1.58,1.75,2,2.85c0.48,1.24,0.48,2.7,0.48,5.6V181.51z"/>
</svg>
