<?xml version="1.0" encoding="utf-8"?>
<!-- Generator: Adobe Illustrator 27.0.0, SVG Export Plug-In . SVG Version: 6.00 Build 0)  -->
<svg version="1.1" id="Layer_3" xmlns="http://www.w3.org/2000/svg" xmlns:xlink="http://www.w3.org/1999/xlink" x="0px" y="0px"
	 viewBox="0 0 256 256" style="enable-background:new 0 0 256 256;" xml:space="preserve">
<path d="M128,0C57.31,0,0,57.31,0,128s57.31,128,128,128s128-57.31,128-128S198.69,0,128,0z M72.56,157.55H64.7l-7.34-30.31
	c-1.81-7.43-3.02-13.13-3.8-19h-0.17c-1.04,5.79-2.33,11.49-4.49,19l-8.29,30.31h-7.86L17.98,99.34h7.95l6.91,29.45
	c1.73,7.25,3.28,14.51,4.32,20.12h0.17c0.95-5.79,2.76-12.7,4.75-20.21l7.77-29.36h7.86l7.08,29.54c1.64,6.91,3.2,13.82,4.06,19.95
	h0.17c1.21-6.39,2.85-12.87,4.66-20.12l7.69-29.36h7.69L72.56,157.55z M147.01,157.55h-7.86l-7.34-30.31
	c-1.81-7.43-3.02-13.13-3.8-19h-0.17c-1.04,5.79-2.33,11.49-4.49,19l-8.29,30.31h-7.86L92.43,99.34h7.95l6.91,29.45
	c1.73,7.25,3.28,14.51,4.32,20.12h0.17c0.95-5.79,2.76-12.7,4.75-20.21l7.77-29.36h7.86l7.08,29.54c1.64,6.91,3.2,13.82,4.06,19.95
	h0.17c1.21-6.39,2.85-12.87,4.66-20.12l7.69-29.36h7.69L147.01,157.55z M213.59,157.55l-7.34-30.31c-1.81-7.43-3.02-13.13-3.8-19
	h-0.17c-1.04,5.79-2.33,11.49-4.49,19l-8.29,30.31h-7.86l-14.77-58.21h7.95l6.91,29.45c1.73,7.25,3.28,14.51,4.32,20.12h0.17
	c0.95-5.79,2.76-12.7,4.75-20.21l7.77-29.36h7.86l7.08,29.54c1.64,6.91,3.2,13.82,4.06,19.95h0.17c1.21-6.39,2.85-12.87,4.66-20.12
	l7.69-29.36h7.69l-16.5,58.21H213.59z"/>
</svg>
